SEEDBOX SUPPORTED!!

*******************************************************************************
                               Salt In The Wound
*******************************************************************************

-------------------------------------------------------------------------------
                              General Information
-------------------------------------------------------------------------------
Type.................: Movie
Platform.............: AVI AC3



Video Format.........: AVI
Video Bitrate........: 1996
Resolution...........: 20 x 540 (4:3)
Color................: 8 bit
FPS..................: 29.97
Source...............: DVD 4x3
Original Format......: NTSC
Genre................: War
IMDb Rating..........: 5.9
Movie Information....: http://www.imdb.com/title/tt0064237

-------------------------------------------------------------------------------
                               Post Information
-------------------------------------------------------------------------------
Posted by............: RadioResearch
Posted on............: 1/19/2013

-------------------------------------------------------------------------------
                                 Release Notes
-------------------------------------------------------------------------------
Another obscure Klaus Kinski WWII spaghetti combat flick, where two condemned 
GIs (Kinski and Rai Saunders) on their way to execution and a fredh-from-West 
Point officer (George Hilton) in command of the execution detail survive a Nazi 
ambush and make their way to a desolate Italian village that lies in the path of 
the German advance.  There they learn the meaning of courage and self-sacrifice 
when they become emotionally involved in the fortune's of the town's people and 
must defend them from the bloodthirsty invaders.



-------------------------------------------------------------------------------
Generated with Cool NFO Creator - http://fly.to/coolbeans
-------------------------------------------------------------------------------
General
Complete name                            : G:AVISalt In The Wound (1969)Salt_In_The_Wound_(1969).avi
Format                                   : AVI
Format/Info                              : Audio Video Interleave
Format profile                           : OpenDML
File size                                : 1.45 GiB
Duration                                 : 1h 32mn
Overall bit rate                         : 2 259 Kbps
Movie name                               : UNDEFINED
Writing application                      : MEncoder 5.0
Writing library                          : [= DigiArty videodll! =]
ID                                       : 0
Format                                   : MPEG-4 Visual
Format profile                           : Simple@L1
Format settings, BVOP                    : No
Format settings, QPel                    : No
Format settings, GMC                     : No warppoints
Format settings, Matrix                  : Default (H.263)
Codec ID                                 : DX50
Codec ID/Hint                            : DivX 5
Duration                                 : 1h 32mn
Bit rate                                 : 1 996 Kbps
Width                                    : 720 pixels
Height                                   : 540 pixels
Display aspect ratio                     : 4:3
Frame rate                               : 29.970 fps
Color space                              : YUV
Chroma subsampling                       : 4:2:0
Bit depth                                : 8 bits
Scan type                                : Progressive
Compression mode                         : Lossy
Bits/(Pixel*Frame)                       : 0.171
Stream size                              : 1.28 GiB (88%)
Writing library                          : Lavc54.71.100

Audio
ID                                       : 1
Format                                   : AC-3
Format/Info                              : Audio Coding 3
Mode extension                           : CM (complete main)
Format settings, Endianness              : Big
Codec ID                                 : 2000
Duration                                 : 1h 32mn
Bit rate mode                            : Constant
Bit rate                                 : 256 Kbps
Channel(s)                               : 2 channels
Channel positions                        : Front: L R
Sampling rate                            : 48.0 KHz
Bit depth                                : 16 bits
Compression mode                         : Lossy
Stream size                              : 169 MiB (11%)
Alignment                                : Split accross interleaves
Interleave, duration                     : 500 ms (14.98 video frames)
Interleave, preload duration             : 500 ms

